<?xml version="1.0" encoding="utf-8"?>
  <!DOCTYPE svg PUBLIC "-//W3C//DTD SVG 1.1//EN" "http://www.w3.org/Graphics/SVG/1.1/DTD/svg11.dtd">
<svg version="1.1" id="Layer_1" xmlns="http://www.w3.org/2000/svg" xmlns:xlink="http://www.w3.org/1999/xlink" x="0px" y="0px"
	 width="40px" height="40px" viewBox="0 0 40 40" enable-background="new 0 0 40 40" xml:space="preserve">
<path fill="#ffffff" d="M25.461,7.608c0.217-0.298,0.633-0.364,0.932-0.147l8.074,5.873l-8.074,5.873
	c-0.299,0.216-0.715,0.15-0.932-0.147s-0.15-0.714,0.146-0.931L31.283,14H9.333c-0.368,0-0.667-0.298-0.667-0.667
	c0-0.369,0.299-0.667,0.667-0.667h21.95l-5.676-4.127C25.311,8.323,25.244,7.906,25.461,7.608z M14.539,20.941
	c0.217,0.298,0.151,0.715-0.147,0.932L8.717,26h21.949c0.369,0,0.668,0.299,0.668,0.666c0,0.369-0.299,0.668-0.668,0.668H8.717
	l5.675,4.127c0.298,0.217,0.364,0.633,0.147,0.932c-0.216,0.297-0.633,0.363-0.931,0.146l-8.075-5.873l8.075-5.872
	C13.906,20.578,14.323,20.644,14.539,20.941z"/>
</svg>
