<?xml version="1.0" encoding="utf-8"?>
<!DOCTYPE svg PUBLIC "-//W3C//DTD SVG 1.1//EN" "http://www.w3.org/Graphics/SVG/1.1/DTD/svg11.dtd">
<svg version="1.1" id="Layer_1" xmlns="http://www.w3.org/2000/svg" xmlns:xlink="http://www.w3.org/1999/xlink" x="0px" y="0px"
	 width="40px" height="40px" viewBox="0 0 40 40" enable-background="new 0 0 40 40" xml:space="preserve">
  <path fill="#ffffff" d="M6.667,15.863c0.05-0.222,0.218-0.404,0.442-0.479l22-7.333c0.301-0.1,0.633,0.012,0.801,0.27
	c0.169,0.257,0.129,0.593-0.096,0.808l-14.667,14c-0.261,0.248-0.682,0.254-0.95,0.011l-7.333-6.667
	C6.692,16.316,6.618,16.085,6.667,15.863z M8.613,16.264l6.042,5.493L26.74,10.221L8.613,16.264z M31.674,10.103
	c0.277,0.153,0.406,0.471,0.309,0.762l-7.334,22c-0.074,0.225-0.27,0.393-0.511,0.439c-0.241,0.048-0.489-0.032-0.651-0.21
	l-6.667-7.333c-0.228-0.25-0.223-0.623,0.011-0.868l14-14.667C31.047,10.001,31.397,9.949,31.674,10.103z M18.246,25.344
	l5.473,6.021l6.021-18.062L18.246,25.344z"/>
</svg>
