<svg width="190" height="190" viewBox="0 0 190 190" fill="none" xmlns="http://www.w3.org/2000/svg">
<path d="M119.447 0H70.5529C68.919 0 67.6099 1.35688 67.5744 3.04346C66.5865 50.4518 42.5636 95.4479 1.21527 127.319C-0.0974779 128.33 -0.39655 130.231 0.563187 131.6L29.1702 172.44C30.1434 173.83 32.0396 174.144 33.3744 173.123C59.2285 153.325 80.024 129.442 94.9998 102.97C109.976 129.442 130.772 153.325 156.626 173.123C157.96 174.144 159.856 173.83 160.831 172.44L189.438 131.6C190.396 130.231 190.097 128.33 188.786 127.319C147.436 95.4479 123.413 50.4518 122.426 3.04346C122.391 1.35688 121.081 0 119.447 0Z" fill="#FF875B"/>
</svg>
